<svg xmlns="http://www.w3.org/2000/svg" width="1600" height="1000" viewBox="0 0 1600 1000" role="img"><defs><style>text{font-family:"Times New Roman","SimSun","Songti SC",serif;font-kerning:normal}path{stroke-linecap:round;stroke-linejoin:round}</style><pattern id="outside-hatch" width="12" height="12" patternUnits="userSpaceOnUse"><path d="M0 12L12 0" stroke="#d7dee0" stroke-width="1"/></pattern><linearGradient id="metal" x1="0" y1="0" x2="0" y2="1"><stop stop-color="#faf9ed"/><stop offset=".42" stop-color="#e9d7b4"/><stop offset="1" stop-color="#bfa789"/></linearGradient></defs><rect x="0" y="0" width="1600" height="1000" fill="#fff" stroke="none" /><rect x="100" y="104" width="395" height="305" fill="#f9fbfb" stroke="#dbe4e6" rx="20" stroke-width="1.5"/><text x="130" y="149" font-size="27" fill="#203748" text-anchor="start" >观测输入</text><g transform="translate(297.5 259) scale(.82) translate(-297.5 -259)"><path d="M193.5,304L403.5,304" fill="none" stroke="#9ba9ae" stroke-width="1.3" /><path d="M193.5,194L193.5,304" fill="none" stroke="#9ba9ae" stroke-width="1.3" /><circle cx="209.5" cy="289" r="4" fill="white" stroke="#d85f32" stroke-width="2" /><circle cx="239.5" cy="248.72682430331275" r="4" fill="white" stroke="#d85f32" stroke-width="2" /><circle cx="269.5" cy="228.72775711532853" r="4" fill="white" stroke="#d85f32" stroke-width="2" /><circle cx="299.5" cy="218.79651426023855" r="4" fill="white" stroke="#d85f32" stroke-width="2" /><circle cx="329.5" cy="213.86480501001745" r="4" fill="white" stroke="#d85f32" stroke-width="2" /><circle cx="359.5" cy="211.41579067378547" r="4" fill="white" stroke="#d85f32" stroke-width="2" /><circle cx="389.5" cy="210.1996461456382" r="4" fill="white" stroke="#d85f32" stroke-width="2" /><path d="M209.5,289C257.5,204 317.5,204 390.5,204" fill="none" stroke="#d85f32" stroke-width="2.5"/><path d="M193.5,354L403.5,354" fill="none" stroke="#9ba9ae" stroke-width="1.3" /><path d="M193.5,244L193.5,354" fill="none" stroke="#9ba9ae" stroke-width="1.3" /><circle cx="209.5" cy="339" r="4" fill="white" stroke="#197e96" stroke-width="2" /><circle cx="239.5" cy="298.72682430331275" r="4" fill="white" stroke="#197e96" stroke-width="2" /><circle cx="269.5" cy="278.72775711532853" r="4" fill="white" stroke="#197e96" stroke-width="2" /><circle cx="299.5" cy="268.79651426023855" r="4" fill="white" stroke="#197e96" stroke-width="2" /><circle cx="329.5" cy="263.86480501001745" r="4" fill="white" stroke="#197e96" stroke-width="2" /><circle cx="359.5" cy="261.41579067378547" r="4" fill="white" stroke="#197e96" stroke-width="2" /><circle cx="389.5" cy="260.1996461456382" r="4" fill="white" stroke="#197e96" stroke-width="2" /><path d="M209.5,339C257.5,254 317.5,254 390.5,254" fill="none" stroke="#197e96" stroke-width="2.5"/></g><text x="297.5" y="382" font-size="23" fill="#203748" text-anchor="middle">T∞(t), C∞(t), R(t)</text><rect x="600" y="104" width="395" height="305" fill="#f9fbfb" stroke="#dbe4e6" rx="20" stroke-width="1.5"/><text x="630" y="149" font-size="27" fill="#203748" text-anchor="start" >物性更新</text><g transform="translate(797.5 259) scale(.82) translate(-797.5 -259)"><path d="M702.5 329C712.5 164 802.5 189 895.5 184" fill="none" stroke="#d85f32" stroke-width="3"/><path d="M702.5 329C712.5 199 802.5 224 895.5 219" fill="none" stroke="#197e96" stroke-width="3"/><path d="M702.5 329C712.5 234 802.5 259 895.5 254" fill="none" stroke="#438d76" stroke-width="3"/><path d="M699.5,159L699.5,334" fill="none" stroke="#607381" stroke-width="1.5" /><path d="M699.5,334L902.5,334" fill="none" stroke="#607381" stroke-width="1.5" /></g><text x="797.5" y="382" font-size="23" fill="#203748" text-anchor="middle">D(C,T), k(C), ρcₚ</text><rect x="1100" y="104" width="395" height="305" fill="#f9fbfb" stroke="#dbe4e6" rx="20" stroke-width="1.5"/><text x="1130" y="149" font-size="27" fill="#203748" text-anchor="start" >守恒通量</text><g transform="translate(1297.5 259) scale(.82) translate(-1297.5 -259)"><circle cx="1297.5" cy="259" r="100" fill="#ebf3f3" stroke="#197e96" stroke-width="1.2" /><circle cx="1297.5" cy="259" r="80" fill="#fff" stroke="#197e96" stroke-width="1.2" /><circle cx="1297.5" cy="259" r="60" fill="#ebf3f3" stroke="#197e96" stroke-width="1.2" /><circle cx="1297.5" cy="259" r="40" fill="#fff" stroke="#197e96" stroke-width="1.2" /><circle cx="1297.5" cy="259" r="20" fill="#ebf3f3" stroke="#197e96" stroke-width="1.2" /><path d="M1182.5,259L1259.2,259" fill="none" stroke="#197e96" stroke-width="3" /><path d="M1271.5 259L1259.2 264.166L1259.2 253.834Z" fill="#197e96"/><path d="M1323.5,259L1400.2,259" fill="none" stroke="#197e96" stroke-width="3" /><path d="M1412.5 259L1400.2 264.166L1400.2 253.834Z" fill="#197e96"/></g><text x="1297.5" y="382" font-size="23" fill="#203748" text-anchor="middle">d(U<tspan font-size="16.099999999999998" baseline-shift="sub">i</tspan>V<tspan font-size="16.099999999999998" baseline-shift="sub">i</tspan>)/dt = F<tspan font-size="16.099999999999998" baseline-shift="sub">i−1/2</tspan> − F<tspan font-size="16.099999999999998" baseline-shift="sub">i+1/2</tspan></text><rect x="850" y="601" width="490" height="305" fill="#f9fbfb" stroke="#dbe4e6" rx="20" stroke-width="1.5"/><text x="880" y="646" font-size="27" fill="#203748" text-anchor="start" >动边界映射</text><g transform="translate(1095 756) scale(.82) translate(-1095 -756)"><circle cx="1095" cy="756" r="104" fill="none" stroke="#9ba9ae" stroke-width="2" stroke-dasharray="8 6"/><circle cx="1095" cy="756" r="67" fill="#e2f0ee" stroke="#438d76" stroke-width="2.5" /><path d="M999,756L1009.7,756" fill="none" stroke="#438d76" stroke-width="3" /><path d="M1022 756L1009.7 761.166L1009.7 750.834Z" fill="#438d76"/><path d="M1191,756L1180.3,756" fill="none" stroke="#438d76" stroke-width="3" /><path d="M1168 756L1180.3 750.834L1180.3 761.166Z" fill="#438d76"/><path d="M1095,660L1095,670.7" fill="none" stroke="#438d76" stroke-width="3" /><path d="M1095 683L1089.834 670.7L1100.166 670.7Z" fill="#438d76"/><path d="M1095,852L1095,841.3" fill="none" stroke="#438d76" stroke-width="3" /><path d="M1095 829L1100.166 841.3L1089.834 841.3Z" fill="#438d76"/></g><text x="1095" y="879" font-size="23" fill="#203748" text-anchor="middle">ξ = r/R(t)</text><rect x="200" y="601" width="490" height="305" fill="#f9fbfb" stroke="#dbe4e6" rx="20" stroke-width="1.5"/><text x="230" y="646" font-size="27" fill="#203748" text-anchor="start" >终点与一致性</text><g transform="translate(445 756) scale(.82) translate(-445 -756)"><path d="M343,791L555,791" fill="none" stroke="#d85f32" stroke-width="2" stroke-dasharray="6 5"/><path d="M350 663C366 758 447 799 541 799" fill="none" stroke="#234e76" stroke-width="3.5"/><circle cx="481" cy="791" r="7" fill="#197e96" stroke="white" stroke-width="2" /><text x="494" y="760" font-size="25" fill="#197e96" text-anchor="start" >t*</text></g><text x="445" y="879" font-size="23" fill="#203748" text-anchor="middle">max C ≤ 0.15</text><path d="M505,257L567.7,257" fill="none" stroke="#607381" stroke-width="3" /><path d="M580 257L567.7 262.166L567.7 251.834Z" fill="#607381"/><path d="M1004,257L1067.7,257" fill="none" stroke="#607381" stroke-width="3" /><path d="M1080 257L1067.7 262.166L1067.7 251.834Z" fill="#607381"/><path d="M1300 429V490H1100V576" fill="none" stroke="#607381" stroke-width="3"/><path d="M1100,540L1100,570.7" fill="none" stroke="#607381" stroke-width="3" /><path d="M1100 583L1094.834 570.7L1105.166 570.7Z" fill="#607381"/><path d="M829,754L723.3,754" fill="none" stroke="#607381" stroke-width="3" /><path d="M711 754L723.3 748.834L723.3 759.166Z" fill="#607381"/><path d="M869 926V956H1539V66H798V80" fill="none" stroke="#438d76" stroke-width="2.3" stroke-dasharray="8 7"/><path d="M798,54L798,72.75" fill="none" stroke="#438d76" stroke-width="2.5" /><path d="M798 83L793.695 72.75L802.305 72.75Z" fill="#438d76"/><text x="1430" y="509" font-size="25" fill="#438d76" text-anchor="middle" >t + Δt</text></svg>