<svg xmlns="http://www.w3.org/2000/svg" width="1600" height="1000" viewBox="0 0 1600 1000" role="img"><defs><style>text{font-family:"Times New Roman","SimSun","Songti SC",serif;font-kerning:normal}path{stroke-linecap:round;stroke-linejoin:round}</style><pattern id="outside-hatch" width="12" height="12" patternUnits="userSpaceOnUse"><path d="M0 12L12 0" stroke="#d7dee0" stroke-width="1"/></pattern><linearGradient id="metal" x1="0" y1="0" x2="0" y2="1"><stop stop-color="#faf9ed"/><stop offset=".42" stop-color="#e9d7b4"/><stop offset="1" stop-color="#bfa789"/></linearGradient></defs><rect x="0" y="0" width="1600" height="1000" fill="#fff" stroke="none" /><path d="M131 444a261 261 0 1 0 522 0a261 261 0 1 0 -522 0M170 444a222 222 0 1 1 444 0a222 222 0 1 1 -444 0" fill="#f1f6f6" fill-rule="evenodd" stroke="#607381" stroke-width="1.5"/><path d="M170 444a222 222 0 1 0 444 0a222 222 0 1 0 -444 0M219 444a173 173 0 1 1 346 0a173 173 0 1 1 -346 0" fill="#fff" fill-rule="evenodd" stroke="#607381" stroke-width="1.5"/><path d="M219 444a173 173 0 1 0 346 0a173 173 0 1 0 -346 0M276 444a116 116 0 1 1 232 0a116 116 0 1 1 -232 0" fill="#c5e2e1" fill-rule="evenodd" stroke="#607381" stroke-width="1.5"/><path d="M276 444a116 116 0 1 0 232 0a116 116 0 1 0 -232 0M335 444a57 57 0 1 1 114 0a57 57 0 1 1 -114 0" fill="#fff" fill-rule="evenodd" stroke="#607381" stroke-width="1.5"/><path d="M335 444a57 57 0 1 0 114 0a57 57 0 1 0 -114 0M392 444a0 0 0 1 1 0 0a0 0 0 1 1 0 0" fill="#f1f6f6" fill-rule="evenodd" stroke="#607381" stroke-width="1.5"/><circle cx="420.5" cy="444" r="5" fill="#203748" stroke="white" stroke-width="1.4" /><circle cx="478.5" cy="444" r="5" fill="#203748" stroke="white" stroke-width="1.4" /><circle cx="536.5" cy="444" r="5" fill="#197e96" stroke="white" stroke-width="1.4" /><circle cx="589.5" cy="444" r="5" fill="#203748" stroke="white" stroke-width="1.4" /><circle cx="633.5" cy="444" r="5" fill="#203748" stroke="white" stroke-width="1.4" /><path d="M392,444L692.8,444" fill="none" stroke="#203748" stroke-width="2" /><path d="M701 444L692.8 447.444L692.8 440.556Z" fill="#203748"/><text x="703" y="479" font-size="29" fill="#203748" text-anchor="start" >r</text><text x="374" y="418" font-size="24" fill="#203748" text-anchor="start" >0</text><path d="M508,444L508,536" fill="none" stroke="#9ba9ae" stroke-width="1" stroke-dasharray="5 5"/><path d="M565,444L565,586" fill="none" stroke="#9ba9ae" stroke-width="1" stroke-dasharray="5 5"/><text x="500" y="564" font-size="24" fill="#203748" text-anchor="end">r<tspan font-size="16.799999999999997" baseline-shift="sub">i−1/2</tspan></text><text x="573" y="613" font-size="24" fill="#203748" text-anchor="start">r<tspan font-size="16.799999999999997" baseline-shift="sub">i+1/2</tspan></text><text x="537" y="420" font-size="25" fill="#197e96" text-anchor="middle">r<tspan font-size="17.5" baseline-shift="sub">i</tspan></text><path d="M566,232L799,265" fill="none" stroke="#9ba9ae" stroke-width="1.5" stroke-dasharray="7 6"/><path d="M565,655L799,645" fill="none" stroke="#9ba9ae" stroke-width="1.5" stroke-dasharray="7 6"/><rect x="812" y="282" width="207" height="325" fill="#f4f7f7" stroke="#9ba9ae" stroke-width="1.4"/><circle cx="915" cy="444" r="6" fill="#203748" stroke="white" stroke-width="1.5" /><text x="915" y="670" font-size="28" fill="#203748" text-anchor="middle" >i − 1</text><rect x="1019" y="282" width="207" height="325" fill="#d4eae8" stroke="#9ba9ae" stroke-width="1.4"/><circle cx="1122" cy="444" r="6" fill="#203748" stroke="white" stroke-width="1.5" /><text x="1122" y="670" font-size="28" fill="#203748" text-anchor="middle" >i</text><rect x="1226" y="282" width="207" height="325" fill="#f4f7f7" stroke="#9ba9ae" stroke-width="1.4"/><circle cx="1329" cy="444" r="6" fill="#203748" stroke="white" stroke-width="1.5" /><text x="1329" y="670" font-size="28" fill="#203748" text-anchor="middle" >i + 1</text><path d="M922,356L1101.6,356" fill="none" stroke="#197e96" stroke-width="4" /><path d="M1118 356L1101.6 362.888L1101.6 349.112Z" fill="#197e96"/><path d="M1127,540L1313.6,540" fill="none" stroke="#197e96" stroke-width="4" /><path d="M1330 540L1313.6 546.888L1313.6 533.112Z" fill="#197e96"/><text x="1019" y="316" font-size="28" fill="#197e96" text-anchor="middle">F<tspan font-size="19.599999999999998" baseline-shift="sub">i−1/2</tspan></text><text x="1226" y="589" font-size="28" fill="#197e96" text-anchor="middle">F<tspan font-size="19.599999999999998" baseline-shift="sub">i+1/2</tspan></text><text x="1120" y="186" font-size="32" fill="#203748" text-anchor="middle">r<tspan font-size="22.4" baseline-shift="sub">i−1/2</tspan> &lt; r &lt; r<tspan font-size="22.4" baseline-shift="sub">i+1/2</tspan></text><text x="400" y="837" font-size="30" fill="#203748" text-anchor="middle">V<tspan font-size="21" baseline-shift="sub">i</tspan> = πL(r²<tspan font-size="21" baseline-shift="sub">i+1/2</tspan> − r²<tspan font-size="21" baseline-shift="sub">i−1/2</tspan>)</text><text x="1116" y="837" font-size="30" fill="#203748" text-anchor="middle">d(U<tspan font-size="21" baseline-shift="sub">i</tspan>V<tspan font-size="21" baseline-shift="sub">i</tspan>)/dt = F<tspan font-size="21" baseline-shift="sub">i−1/2</tspan> − F<tspan font-size="21" baseline-shift="sub">i+1/2</tspan></text><text x="400" y="904" font-size="28" fill="#197e96" text-anchor="middle">F<tspan font-size="19.599999999999998" baseline-shift="sub">1/2</tspan> = 0</text></svg>